<svg width="59" height="60" viewBox="0 0 59 60" fill="none" xmlns="http://www.w3.org/2000/svg">
<path fill-rule="evenodd" clip-rule="evenodd" d="M16.4819 1.31003C17.0006 0.791377 17.704 0.5 18.4375 0.5H40.5625C41.2959 0.5 41.9995 0.791377 42.518 1.31003L58.1899 16.9819C58.7087 17.5006 59 18.204 59 18.9375V41.0625C59 41.7959 58.7087 42.4995 58.1899 43.018L42.518 58.6899C41.9995 59.2087 41.2959 59.5 40.5625 59.5H18.4375C17.704 59.5 17.0006 59.2087 16.4819 58.6899L0.810033 43.018C0.291377 42.4995 0 41.7959 0 41.0625V18.9375C0 18.204 0.291377 17.5006 0.810033 16.9819L16.4819 1.31003ZM19.5831 6.03125L5.53125 20.0831V39.9168L19.5831 53.9688H39.4168L53.4688 39.9168V20.0831L39.4168 6.03125H19.5831ZM29.5 15.25C31.0274 15.25 32.2656 16.4882 32.2656 18.0156V30.9219C32.2656 32.4493 31.0274 33.6875 29.5 33.6875C27.9726 33.6875 26.7344 32.4493 26.7344 30.9219V18.0156C26.7344 16.4882 27.9726 15.25 29.5 15.25ZM29.5 44.75C31.5366 44.75 33.1875 43.0991 33.1875 41.0625C33.1875 39.0259 31.5366 37.375 29.5 37.375C27.4635 37.375 25.8125 39.0259 25.8125 41.0625C25.8125 43.0991 27.4635 44.75 29.5 44.75Z" fill="#FDFDFD"/>
</svg>
