
        <svg
          width="47"
          height="50"
          viewBox="0 0 47 50"
          fill="none"
          xmlns="http://www.w3.org/2000/svg"
        >
          <rect
            y="0.979248"
            width="46.947"
            height="48.0416"
            rx="2.93001"
            fill="#2E2F2F"
          />
          <path
            fill-rule="evenodd"
            clip-rule="evenodd"
            d="M19.1491 27.0808C21.0714 30.4023 25.8771 30.4023 27.7993 27.0808L29.1753 24.7032C29.3871 24.3374 29.5463 23.9614 29.657 23.582H37.947C37.947 27.4115 36.4222 31.0841 33.7078 33.7918C30.9935 36.4997 27.3121 38.021 23.4735 38.021C19.6349 38.021 15.9535 36.4997 13.2392 33.7918C10.5249 31.0841 9 27.4115 9 23.582H17.2914C17.4021 23.9613 17.5614 24.3373 17.7731 24.7032L19.1491 27.0808Z"
            fill="white"
          />
          <path
            d="M13.4776 19.8531C15.6571 19.8531 17.424 18.0905 17.424 15.9162C17.424 13.7419 15.6571 11.9792 13.4776 11.9792C11.2981 11.9792 9.53125 13.7419 9.53125 15.9162C9.53125 18.0905 11.2981 19.8531 13.4776 19.8531Z"
            fill="white"
          />
          <path
            fill-rule="evenodd"
            clip-rule="evenodd"
            d="M31.0305 11.9792C30.4899 11.9792 30.0518 12.4164 30.0518 12.9556V18.8768C30.0518 19.416 30.4899 19.8531 31.0305 19.8531H36.9658C37.5063 19.8531 37.9445 19.416 37.9445 18.8768V12.9556C37.9445 12.4164 37.5063 11.9792 36.9658 11.9792H31.0305ZM33.9981 12.7666C32.2545 12.7666 30.841 14.1767 30.841 15.9162C30.841 17.6556 32.2545 19.0657 33.9981 19.0657C35.7417 19.0657 37.1552 17.6556 37.1552 15.9162C37.1552 14.1767 35.7417 12.7666 33.9981 12.7666Z"
            fill="white"
          />
        </svg>
   