
        <svg
            width="40"
            height="40"
            viewBox="0 0 40 40"
            fill="none"
            xmlns="http://www.w3.org/2000/svg"
          >
            <path
              d="M0 20C0 8.95431 8.95431 0 20 0C31.0457 0 40 8.95431 40 20C40 31.0457 31.0457 40 20 40C8.95431 40 0 31.0457 0 20Z"
              fill="#FF6100"
            />
            <path
              fill-rule="evenodd"
              clip-rule="evenodd"
              d="M23.7496 15.4999C23.7496 16.4944 23.3545 17.4482 22.6513 18.1515C21.948 18.8548 20.9942 19.2499 19.9996 19.2499C19.005 19.2499 18.0512 18.8548 17.348 18.1515C16.6447 17.4482 16.2496 16.4944 16.2496 15.4999C16.2496 14.5053 16.6447 13.5515 17.348 12.8482C18.0512 12.1449 19.005 11.7499 19.9996 11.7499C20.9942 11.7499 21.948 12.1449 22.6513 12.8482C23.3545 13.5515 23.7496 14.5053 23.7496 15.4999ZM23.8411 20.1094C24.7881 19.3198 25.4688 18.2577 25.7908 17.0676C26.1127 15.8774 26.0601 14.617 25.6402 13.4577C25.2204 12.2985 24.4536 11.2967 23.4442 10.5888C22.4348 9.88079 21.2318 9.50098 19.9989 9.50098C18.7659 9.50098 17.5629 9.88079 16.5535 10.5888C15.5441 11.2967 14.7773 12.2985 14.3575 13.4577C13.9376 14.617 13.8851 15.8774 14.207 17.0676C14.5289 18.2577 15.2096 19.3198 16.1566 20.1094C14.68 20.8075 13.421 21.894 12.5145 23.2526C11.6079 24.6113 11.0879 26.1908 11.0101 27.8224C11.0029 28.1164 11.111 28.4015 11.3114 28.6166C11.5118 28.8319 11.7885 28.9601 12.0823 28.9738C12.376 28.9876 12.6635 28.8857 12.883 28.6901C13.1026 28.4945 13.2369 28.2208 13.2571 27.9274C13.3389 26.1941 14.085 24.559 15.3405 23.3614C16.596 22.1636 18.2645 21.4955 19.9996 21.4955C21.7347 21.4955 23.4033 22.1636 24.6588 23.3614C25.9143 24.559 26.6604 26.1941 26.7421 27.9274C26.7459 28.0772 26.7793 28.2247 26.8408 28.3613C26.9023 28.498 26.9905 28.621 27.1002 28.723C27.2098 28.8251 27.3388 28.9043 27.4794 28.9559C27.6201 29.0075 27.7696 29.0305 27.9193 29.0234C28.069 29.0165 28.2157 28.9796 28.351 28.9151C28.4862 28.8506 28.6072 28.7599 28.7068 28.648C28.8066 28.5361 28.8828 28.4054 28.9312 28.2637C28.9798 28.1219 28.9995 27.9718 28.9891 27.8224C28.9111 26.1907 28.3909 24.611 27.4842 23.2523C26.5773 21.8937 25.318 20.8072 23.8411 20.1094Z"
              fill="white"
            />
        </svg>
   