
        <svg width="16" height="20" viewBox="0 0 16 20" fill="none" xmlns="http://www.w3.org/2000/svg">
            <path fill-rule="evenodd" clip-rule="evenodd" d="M1.67884 9.93165C2.09143 9.31094 2.9206 8.18152 4.0447 7.21477C5.17567 6.2421 6.52738 5.5 8.00001 5.5C9.47264 5.5 10.8244 6.2421 11.9553 7.21477C13.0794 8.18152 13.9086 9.31094 14.3212 9.93165C14.35 9.975 14.35 10.025 14.3212 10.0683C13.9086 10.6891 13.0794 11.8185 11.9553 12.7852C10.8244 13.7579 9.47264 14.5 8.00001 14.5C6.52738 14.5 5.17567 13.7579 4.0447 12.7852C2.9206 11.8185 2.09143 10.6891 1.67884 10.0683C1.65002 10.025 1.65002 9.975 1.67884 9.93165ZM8.00001 4C6.01865 4 4.32919 4.99167 3.06662 6.07751C1.79718 7.16926 0.880454 8.42307 0.429635 9.10129C0.0664231 9.64771 0.0664245 10.3523 0.429635 10.8987C0.880455 11.5769 1.79718 12.8307 3.06662 13.9225C4.32919 15.0083 6.01865 16 8.00001 16C9.98137 16 11.6708 15.0083 12.9334 13.9225C14.2028 12.8307 15.1196 11.5769 15.5704 10.8987C15.9336 10.3523 15.9336 9.64771 15.5704 9.10129C15.1196 8.42307 14.2028 7.16926 12.9334 6.07751C11.6708 4.99167 9.98137 4 8.00001 4ZM8 12C9.10457 12 10 11.1046 10 10C10 8.89543 9.10457 8 8 8C6.89543 8 6 8.89543 6 10C6 11.1046 6.89543 12 8 12Z" fill="#F71873"/>
        </svg>
   