<svg width="20" height="20" viewBox="0 0 20 20" fill="none" xmlns="http://www.w3.org/2000/svg">
<g clip-path="url(#clip0_3004_39109)">
<path d="M3.4375 1.875C3.26491 1.875 3.125 2.01491 3.125 2.1875V16.5625C3.125 16.7351 3.26491 16.875 3.4375 16.875H7.8125C8.33027 16.875 8.75 17.2947 8.75 17.8125C8.75 18.3303 8.33027 18.75 7.8125 18.75H3.4375C2.22938 18.75 1.25 17.7706 1.25 16.5625V2.1875C1.25 0.979377 2.22938 0 3.4375 0H13.4375C14.2402 0 14.942 0.432379 15.3225 1.07695C15.3671 1.14602 15.4562 1.33984 15.4562 1.5625C15.4562 2.08027 15.0365 2.5 14.5187 2.5C14.1743 2.5 13.8743 2.31365 13.7114 2.03689C13.6582 1.94038 13.5555 1.875 13.4375 1.875H3.4375Z" fill="#4B5563"/>
<path fill-rule="evenodd" clip-rule="evenodd" d="M10 8.75C10 5.98858 12.2386 3.75 15 3.75C17.7614 3.75 20 5.98858 20 8.75C20 10.3343 19.2632 11.7464 18.1136 12.6625L19.3568 18.8788C19.4232 19.2109 19.3053 19.5531 19.0484 19.7738C18.7915 19.9945 18.4355 20.0595 18.1171 19.9437L15.1068 18.849C15.0378 18.8239 14.9622 18.8239 14.8932 18.849L11.8829 19.9437C11.5646 20.0595 11.2086 19.9945 10.9516 19.7738C10.6947 19.5531 10.5768 19.2109 10.6432 18.8788L11.8865 12.6625C10.7368 11.7464 10 10.3343 10 8.75ZM15 5.625C13.2741 5.625 11.875 7.02411 11.875 8.75C11.875 10.4759 13.2741 11.875 15 11.875C16.7259 11.875 18.125 10.4759 18.125 8.75C18.125 7.02411 16.7259 5.625 15 5.625ZM15 13.75C15.4788 13.75 15.9419 13.6827 16.3803 13.557L17.1913 17.6119L15.7476 17.0869C15.2647 16.9113 14.7354 16.9113 14.2525 17.0869L12.8087 17.6119L13.6197 13.557C14.0581 13.6827 14.5212 13.75 15 13.75Z" fill="#4B5563"/>
</g>
<defs>
<clipPath id="clip0_3004_39109">
<rect width="20" height="20" fill="white"/>
</clipPath>
</defs>
</svg>
