<svg width="20" height="20" viewBox="0 0 20 20" fill="none" xmlns="http://www.w3.org/2000/svg">
<path fill-rule="evenodd" clip-rule="evenodd" d="M10 20C15.5229 20 20 15.5229 20 10C20 4.47715 15.5229 0 10 0C4.47715 0 0 4.47715 0 10C0 15.5229 4.47715 20 10 20ZM14.7254 7.85041C15.0915 7.4843 15.0915 6.8907 14.7254 6.52459C14.3593 6.15847 13.7657 6.15847 13.3996 6.52459L8.4375 11.4867L6.60041 9.64959C6.2343 9.28347 5.6407 9.28347 5.27459 9.64959C4.90847 10.0157 4.90847 10.6093 5.27459 10.9754L7.77459 13.4754C8.1407 13.8415 8.7343 13.8415 9.10041 13.4754L14.7254 7.85041Z" fill="#34D058"/>
</svg>
