<svg width="20" height="20" viewBox="0 0 20 20" fill="none" xmlns="http://www.w3.org/2000/svg">
<path fill-rule="evenodd" clip-rule="evenodd" d="M5 2.1875C5 0.979378 5.97937 0 7.1875 0H14.1698C14.7499 0 15.3063 0.230467 15.7165 0.640704L19.3592 4.28347C19.7695 4.69371 20 5.2501 20 5.83026V16.5625C20 17.7706 19.0206 18.75 17.8125 18.75H6.5625C6.04474 18.75 5.625 18.3302 5.625 17.8125C5.625 17.2948 6.04474 16.875 6.5625 16.875H17.8125C17.9851 16.875 18.125 16.7351 18.125 16.5625V7.5H14.6875C13.4794 7.5 12.5 6.52063 12.5 5.3125V1.875H7.1875C7.01491 1.875 6.875 2.01491 6.875 2.1875V4.6875C6.875 5.20526 6.45526 5.625 5.9375 5.625C5.41974 5.625 5 5.20526 5 4.6875V2.1875ZM14.375 1.95187V5.3125C14.375 5.48509 14.5149 5.625 14.6875 5.625H18.0481C18.0435 5.61961 18.0385 5.61438 18.0335 5.6093L14.3907 1.96653C14.3856 1.96145 14.3804 1.95656 14.375 1.95187ZM0 9.6875C0 8.47937 0.979378 7.5 2.1875 7.5H4.0625C5.27063 7.5 6.25 8.47937 6.25 9.6875V12.8125C6.25 14.0206 5.27063 15 4.0625 15H2.1875C0.979378 15 0 14.0206 0 12.8125V9.6875ZM2.1875 9.375C2.01491 9.375 1.875 9.51491 1.875 9.6875V12.8125C1.875 12.9851 2.01491 13.125 2.1875 13.125H4.0625C4.23509 13.125 4.375 12.9851 4.375 12.8125V9.6875C4.375 9.51491 4.23509 9.375 4.0625 9.375H2.1875ZM8.4375 7.5C7.91974 7.5 7.5 7.91974 7.5 8.4375C7.5 8.95526 7.91974 9.375 8.4375 9.375H9.375V13.125H8.4375C7.91974 13.125 7.5 13.5448 7.5 14.0625C7.5 14.5802 7.91974 15 8.4375 15H12.1875C12.7052 15 13.125 14.5802 13.125 14.0625C13.125 13.5448 12.7052 13.125 12.1875 13.125H11.25V8.4375C11.25 7.91974 10.8303 7.5 10.3125 7.5H8.4375Z" fill="#4B5563"/>
</svg>
