<svg width="20" height="20" viewBox="0 0 20 20" fill="none" xmlns="http://www.w3.org/2000/svg">
<path fill-rule="evenodd" clip-rule="evenodd" d="M9.6875 2.50049C9.93614 2.50049 10.1746 2.59926 10.3504 2.77508C10.5262 2.95089 10.625 3.18935 10.625 3.43799V8.75049H15.9375C16.1861 8.75049 16.4246 8.84926 16.6004 9.02507C16.7762 9.20089 16.875 9.43935 16.875 9.68799C16.875 9.93663 16.7762 10.1751 16.6004 10.3509C16.4246 10.5267 16.1861 10.6255 15.9375 10.6255H10.625V15.938C10.625 16.1866 10.5262 16.4251 10.3504 16.6009C10.1746 16.7767 9.93614 16.8755 9.6875 16.8755C9.43886 16.8755 9.2004 16.7767 9.02459 16.6009C8.84877 16.4251 8.75 16.1866 8.75 15.938V10.6255H3.4375C3.18886 10.6255 2.9504 10.5267 2.77459 10.3509C2.59878 10.1751 2.5 9.93663 2.5 9.68799C2.5 9.43935 2.59878 9.20089 2.77459 9.02507C2.9504 8.84926 3.18886 8.75049 3.4375 8.75049H8.75V3.43799C8.75 3.18935 8.84877 2.95089 9.02459 2.77508C9.2004 2.59926 9.43886 2.50049 9.6875 2.50049Z" fill="#4B5563"/>
</svg>
