<svg width="20" height="20" viewBox="0 0 20 20" fill="none" xmlns="http://www.w3.org/2000/svg">
<path fill-rule="evenodd" clip-rule="evenodd" d="M13.1243 6.25053C13.1243 7.07933 12.7951 7.87418 12.2091 8.46023C11.623 9.04629 10.8281 9.37553 9.99935 9.37553C9.17055 9.37553 8.3757 9.04629 7.78965 8.46023C7.20358 7.87418 6.87435 7.07933 6.87435 6.25053C6.87435 5.42173 7.20358 4.62686 7.78965 4.04081C8.3757 3.45477 9.17055 3.12553 9.99935 3.12553C10.8281 3.12553 11.623 3.45477 12.2091 4.04081C12.7951 4.62686 13.1243 5.42173 13.1243 6.25053ZM13.2006 10.0918C13.9897 9.43383 14.557 8.54875 14.8253 7.55695C15.0936 6.56514 15.0497 5.51478 14.6998 4.54875C14.35 3.58273 13.711 2.74794 12.8698 2.15795C12.0287 1.56798 11.0262 1.25146 9.99872 1.25146C8.97128 1.25146 7.96878 1.56798 7.12762 2.15795C6.28646 2.74794 5.64746 3.58273 5.29758 4.54875C4.9477 5.51478 4.9039 6.56514 5.17216 7.55695C5.44042 8.54875 6.00771 9.43383 6.79685 10.0918C5.56633 10.6735 4.51718 11.579 3.76172 12.7112C3.00626 13.8434 2.57292 15.1597 2.5081 16.5193C2.50207 16.7643 2.5922 17.0019 2.7592 17.1812C2.92618 17.3605 3.15676 17.4674 3.40156 17.4788C3.64635 17.4903 3.88588 17.4054 4.06887 17.2424C4.25186 17.0794 4.36376 16.8513 4.3806 16.6068C4.44875 15.1624 5.07047 13.7998 6.11673 12.8018C7.16298 11.8037 8.5534 11.2469 9.99935 11.2469C11.4453 11.2469 12.8357 11.8037 13.882 12.8018C14.9282 13.7998 15.55 15.1624 15.6181 16.6068C15.6212 16.7317 15.6491 16.8545 15.7003 16.9684C15.7516 17.0823 15.8251 17.1848 15.9165 17.2698C16.0078 17.3549 16.1153 17.4209 16.2325 17.4639C16.3497 17.5069 16.4743 17.526 16.5991 17.5202C16.7238 17.5144 16.8461 17.4837 16.9588 17.4299C17.0715 17.3762 17.1723 17.3005 17.2553 17.2073C17.3385 17.114 17.402 17.0052 17.4423 16.887C17.4828 16.7689 17.4992 16.6438 17.4906 16.5193C17.4256 15.1595 16.9921 13.8432 16.2365 12.7109C15.4807 11.5787 14.4313 10.6734 13.2006 10.0918Z" fill="#4B5563"/>
</svg>
