<svg width="20" height="20" viewBox="0 0 20 20" fill="none" xmlns="http://www.w3.org/2000/svg">
<path fill-rule="evenodd" clip-rule="evenodd" d="M10.6667 0.165596C10.2331 0.0268331 9.76694 0.0268323 9.3333 0.165595L2.7708 2.26559C1.86479 2.55552 1.25 3.39774 1.25 4.34902V8.74908C1.25 10.7066 1.64904 12.7271 2.879 14.6018C4.10789 16.4749 6.11045 18.1175 9.16885 19.4201C9.69886 19.6459 10.3011 19.6459 10.8312 19.4201C13.8895 18.1175 15.8921 16.4749 17.121 14.6018C18.351 12.7271 18.75 10.7066 18.75 8.74908V4.34902C18.75 3.39774 18.1353 2.55552 17.2292 2.26559L10.6667 0.165596ZM9.90476 1.95139C9.9667 1.93157 10.0333 1.93157 10.0952 1.95139L16.6577 4.05139C16.7871 4.0928 16.875 4.21313 16.875 4.34902V8.74908C16.875 10.447 16.5316 12.082 15.5533 13.5733C14.5739 15.0661 12.902 16.5001 10.0964 17.6951C10.0358 17.7209 9.96418 17.7209 9.90359 17.6951C7.09798 16.5001 5.42618 15.0661 4.44671 13.5733C3.46831 12.082 3.125 10.447 3.125 8.74908V4.34902C3.125 4.21313 3.21283 4.0928 3.34226 4.05139L9.90476 1.95139ZM14.1004 7.84953C14.4665 7.4834 14.4665 6.88982 14.1004 6.5237C13.7343 6.15758 13.1407 6.15758 12.7746 6.5237L9.0625 10.2358L7.85041 9.0237C7.4843 8.65758 6.8907 8.65758 6.52459 9.0237C6.15847 9.38982 6.15847 9.9834 6.52459 10.3495L8.39959 12.2245C8.7657 12.5906 9.3593 12.5906 9.72541 12.2245L14.1004 7.84953Z" fill="#4B5563"/>
</svg>
