<svg width="20" height="20" viewBox="0 0 20 20" fill="none" xmlns="http://www.w3.org/2000/svg">
<path fill-rule="evenodd" clip-rule="evenodd" d="M20 4.68799C20 4.35024 19.8184 4.03859 19.5244 3.87218C19.2305 3.70576 18.8698 3.71031 18.5801 3.88409L13.75 6.78219V5.93799C13.75 4.72986 12.7706 3.75049 11.5625 3.75049H2.1875C0.979378 3.75049 0 4.72986 0 5.93799V14.063C0 15.2711 0.979378 16.2505 2.1875 16.2505H11.5625C12.7706 16.2505 13.75 15.2711 13.75 14.063V13.2187L18.5801 16.1169C18.8698 16.2906 19.2305 16.2952 19.5244 16.1287C19.8184 15.9624 20 15.6507 20 15.313V4.68799ZM13.75 11.0322L18.125 13.6572V6.34379L13.75 8.96879V11.0322ZM11.875 8.43799V5.93799C11.875 5.7654 11.7351 5.62549 11.5625 5.62549H2.1875C2.01491 5.62549 1.875 5.7654 1.875 5.93799V14.063C1.875 14.2356 2.01491 14.3755 2.1875 14.3755H11.5625C11.7351 14.3755 11.875 14.2356 11.875 14.063V11.563V8.43799Z" fill="#4B5563"/>
</svg>
