<svg width="20" height="25" viewBox="0 0 20 25" fill="none" xmlns="http://www.w3.org/2000/svg">
<path fill-rule="evenodd" clip-rule="evenodd" d="M1.5 10C1.49999 8.77839 1.84424 7.5815 2.49327 6.54656C3.14231 5.51162 4.06985 4.68053 5.16957 4.14858C6.26928 3.61662 7.49664 3.40534 8.71092 3.53895C9.92521 3.67256 11.0773 4.14566 12.035 4.904L2.904 14.035C1.99276 12.8877 1.49778 11.4651 1.5 10ZM3.965 15.096C5.21468 16.0856 6.78443 16.5815 8.37581 16.4893C9.96719 16.3972 11.4692 15.7236 12.5964 14.5964C13.7236 13.4692 14.3972 11.9672 14.4893 10.3758C14.5815 8.78443 14.0856 7.21468 13.096 5.965L3.965 15.096ZM8 2C5.87827 2 3.84344 2.84285 2.34315 4.34315C0.842855 5.84344 0 7.87827 0 10C0 12.1217 0.842855 14.1566 2.34315 15.6569C3.84344 17.1571 5.87827 18 8 18C10.1217 18 12.1566 17.1571 13.6569 15.6569C15.1571 14.1566 16 12.1217 16 10C16 7.87827 15.1571 5.84344 13.6569 4.34315C12.1566 2.84285 10.1217 2 8 2Z" fill="white"/>
</svg>
