<svg width="42" height="40" viewBox="0 0 42 40" fill="none" xmlns="http://www.w3.org/2000/svg">
<path d="M0 19.2168C0 9.13003 8.1769 0.953125 18.2636 0.953125C28.3504 0.953125 36.5273 9.13003 36.5273 19.2168C36.5273 29.3035 28.3504 37.4804 18.2636 37.4804C8.1769 37.4804 0 29.3035 0 19.2168Z" fill="#2B00FF"/>
<path fill-rule="evenodd" clip-rule="evenodd" d="M21.688 15.107C21.688 16.0152 21.3272 16.8862 20.685 17.5284C20.0428 18.1706 19.1718 18.5314 18.2636 18.5314C17.3553 18.5314 16.4843 18.1706 15.8421 17.5284C15.1999 16.8862 14.8391 16.0152 14.8391 15.107C14.8391 14.1988 15.1999 13.3277 15.8421 12.6855C16.4843 12.0433 17.3553 11.6825 18.2636 11.6825C19.1718 11.6825 20.0428 12.0433 20.685 12.6855C21.3272 13.3277 21.688 14.1988 21.688 15.107ZM21.7715 19.3163C22.6363 18.5953 23.2579 17.6254 23.552 16.5386C23.8459 15.4517 23.7978 14.3007 23.4144 13.2421C23.031 12.1835 22.3308 11.2688 21.4091 10.6223C20.4873 9.97575 19.3888 9.62891 18.2629 9.62891C17.137 9.62891 16.0384 9.97575 15.1167 10.6223C14.1949 11.2688 13.4947 12.1835 13.1113 13.2421C12.7279 14.3007 12.6799 15.4517 12.9738 16.5386C13.2678 17.6254 13.8894 18.5953 14.7542 19.3163C13.4058 19.9538 12.2561 20.946 11.4283 22.1866C10.6004 23.4274 10.1255 24.8697 10.0545 26.3596C10.0479 26.6281 10.1467 26.8885 10.3297 27.0849C10.5127 27.2815 10.7653 27.3986 11.0336 27.4111C11.3018 27.4237 11.5643 27.3307 11.7648 27.1521C11.9654 26.9734 12.088 26.7235 12.1064 26.4555C12.1811 24.8728 12.8624 23.3796 14.0089 22.2859C15.1554 21.1922 16.6791 20.582 18.2636 20.582C19.8481 20.582 21.3717 21.1922 22.5182 22.2859C23.6647 23.3796 24.346 24.8728 24.4207 26.4555C24.4241 26.5924 24.4547 26.727 24.5108 26.8518C24.567 26.9766 24.6475 27.0889 24.7476 27.1821C24.8478 27.2753 24.9656 27.3477 25.0939 27.3948C25.2224 27.4419 25.359 27.4629 25.4957 27.4564C25.6324 27.4501 25.7663 27.4164 25.8899 27.3575C26.0133 27.2986 26.1239 27.2158 26.2148 27.1136C26.3059 27.0114 26.3755 26.8921 26.4197 26.7626C26.4641 26.6332 26.4821 26.4961 26.4726 26.3596C26.4014 24.8696 25.9263 23.4271 25.0983 22.1864C24.2701 20.9457 23.1202 19.9536 21.7715 19.3163Z" fill="white"/>
<rect x="22.1826" y="21.125" width="18.8276" height="18.8276" rx="9.41379" fill="white"/>
<g clip-path="url(#clip0_3611_44449)">
<path fill-rule="evenodd" clip-rule="evenodd" d="M31.5964 38.1593C35.8052 38.1593 39.2171 34.7475 39.2171 30.5387C39.2171 26.3299 35.8052 22.918 31.5964 22.918C27.3876 22.918 23.9757 26.3299 23.9757 30.5387C23.9757 34.7475 27.3876 38.1593 31.5964 38.1593ZM35.1975 28.9005C35.4765 28.6215 35.4765 28.1692 35.1975 27.8902C34.9184 27.6112 34.4662 27.6112 34.1871 27.8902L30.4057 31.6716L29.0057 30.2716C28.7267 29.9926 28.2743 29.9926 27.9953 30.2716C27.7163 30.5506 27.7163 31.003 27.9953 31.282L29.9005 33.1871C30.1795 33.4661 30.6318 33.4661 30.9109 33.1871L35.1975 28.9005Z" fill="#34D058"/>
</g>
<defs>
<clipPath id="clip0_3611_44449">
<rect width="15.2414" height="15.2414" fill="white" transform="translate(23.9757 22.918)"/>
</clipPath>
</defs>
</svg>